<svg xmlns="http://www.w3.org/2000/svg" xmlns:xlink="http://www.w3.org/1999/xlink" width="500" zoomAndPan="magnify" viewBox="0 0 375 374.999991" height="500" preserveAspectRatio="xMidYMid meet" version="1.0"><defs><clipPath id="912dda73ab"><path d="M 0.761719 5 L 44 5 L 44 119 L 0.761719 119 Z M 0.761719 5 " clip-rule="nonzero"/></clipPath><clipPath id="180be39fef"><path d="M 52 0.730469 L 142 0.730469 L 142 168.960938 L 52 168.960938 Z M 52 0.730469 " clip-rule="nonzero"/></clipPath><clipPath id="d3fd16e896"><path d="M 147.570312 0.730469 L 328.359375 0.730469 L 328.359375 168.960938 L 147.570312 168.960938 Z M 147.570312 0.730469 " clip-rule="nonzero"/></clipPath><clipPath id="151af3e8c3"><path d="M 0.761719 63.839844 L 44 63.839844 L 44 157 L 0.761719 157 Z M 0.761719 63.839844 " clip-rule="nonzero"/></clipPath><clipPath id="41b509b8f8"><rect x="0" width="329" y="0" height="169"/></clipPath></defs><g transform="matrix(1, 0, 0, 1, 23, 84)"><g clip-path="url(#41b509b8f8)"><g clip-path="url(#912dda73ab)"><path fill="#d5b378" d="M 43.558594 48.429688 L 43.558594 118.546875 L 43.539062 118.546875 C 19.929688 118.546875 0.777344 99.398438 0.777344 75.792969 L 0.777344 5.644531 L 0.796875 5.644531 C 24.402344 5.644531 43.558594 24.820312 43.558594 48.429688 Z M 43.558594 48.429688 " fill-opacity="1" fill-rule="nonzero"/></g><g clip-path="url(#180be39fef)"><path fill="#d5b378" d="M 136.117188 168.578125 L 74.652344 134.847656 C 59.992188 126.800781 52.117188 111.414062 52.695312 95.765625 L 52.695312 76.390625 C 50.964844 59.789062 59.101562 42.992188 74.652344 34.460938 L 136.117188 0.730469 C 147.472656 21.425781 139.902344 47.410156 119.207031 58.769531 L 72.039062 84.65625 L 119.207031 110.542969 C 139.902344 121.898438 147.472656 147.882812 136.117188 168.578125 Z M 136.117188 168.578125 " fill-opacity="1" fill-rule="nonzero"/></g><g clip-path="url(#d3fd16e896)"><path fill="#d5b378" d="M 247.285156 12.84375 C 280.667969 12.84375 305.125 30.898438 313.207031 60.652344 C 313.050781 60.503906 312.894531 60.351562 312.738281 60.207031 C 296.78125 45.1875 271.265625 40.285156 252.703125 38.820312 C 252.609375 38.8125 252.515625 38.804688 252.421875 38.796875 L 252.257812 38.785156 C 246.6875 38.359375 241.730469 38.230469 237.78125 38.230469 C 232.960938 38.230469 229.640625 38.421875 228.550781 38.496094 L 205.308594 38.496094 C 188.308594 38.496094 172.929688 28.421875 166.132812 12.84375 Z M 246.523438 156.476562 L 194.824219 156.476562 L 194.824219 88.375 L 220.980469 88.375 L 220.980469 130.320312 L 247.851562 130.320312 C 260.5 130.320312 271.195312 126.125 278.777344 118.183594 C 286.449219 110.148438 290.503906 98.636719 290.503906 84.882812 L 290.503906 84.4375 C 290.503906 73.867188 288.101562 64.570312 283.5 57.132812 C 292.234375 60.164062 299.257812 64.152344 304.445312 69.035156 C 311.835938 75.996094 315.535156 85.023438 315.449219 95.871094 C 311.015625 133.261719 284.617188 156.476562 246.523438 156.476562 Z M 306.921875 24.28125 C 292.457031 8.871094 271.832031 0.730469 247.285156 0.730469 L 147.632812 0.730469 L 155.820312 19.5 C 164.0625 38.394531 182.714844 50.609375 203.328125 50.609375 L 243.851562 50.609375 L 247.828125 50.71875 L 247.957031 50.722656 C 248.050781 50.722656 248.136719 50.722656 248.226562 50.726562 L 248.445312 50.730469 C 250.097656 50.832031 251.785156 50.960938 253.460938 51.113281 C 269.070312 53.378906 278.390625 65.832031 278.390625 84.4375 L 278.390625 84.882812 C 278.390625 106.0625 267.261719 118.207031 247.851562 118.207031 L 233.09375 118.207031 L 233.09375 76.261719 L 182.710938 76.261719 L 182.710938 168.589844 L 246.523438 168.589844 C 271.199219 168.589844 292.011719 160.207031 306.714844 144.34375 C 320.792969 129.152344 328.238281 108.359375 328.238281 84.214844 L 328.238281 83.769531 C 328.238281 59.699219 320.867188 39.125 306.921875 24.28125 " fill-opacity="1" fill-rule="nonzero"/></g><g clip-path="url(#151af3e8c3)"><path fill="#d5b378" d="M 43.558594 86.09375 L 43.558594 156.214844 L 43.539062 156.214844 C 19.929688 156.214844 0.777344 137.066406 0.777344 113.460938 L 0.777344 43.3125 L 0.796875 43.3125 C 24.402344 43.3125 43.558594 62.484375 43.558594 86.09375 Z M 43.558594 86.09375 " fill-opacity="1" fill-rule="nonzero"/></g></g></g></svg>